<svg id="Layer_1" data-name="Layer 1" xmlns="http://www.w3.org/2000/svg" viewBox="0 0 623.47 1067.84"><defs><style>.cls-1{fill:#ff9779;}.cls-1,.cls-2,.cls-3,.cls-4,.cls-5,.cls-6{fill-rule:evenodd;}.cls-2{fill:#ffdc91;}.cls-3{fill:#ffff9e;}.cls-4{fill:#e76f51;}.cls-5{fill:#e9c46a;}.cls-6{fill:#f4a261;}</style></defs><path class="cls-1" d="M949.46,889.45h-283L804.12,810l145.34-83.92Z" transform="translate(-648.27 -6.09)"/><path class="cls-2" d="M949.46,910.55v163.37l-283-163.37Z" transform="translate(-648.27 -6.09)"/><path class="cls-3" d="M1253.48,190.55,970.55,353.91V190.55Z" transform="translate(-648.27 -6.09)"/><path class="cls-2" d="M970.55,169.45V6.09l282.93,163.36Z" transform="translate(-648.27 -6.09)"/><path class="cls-2" d="M970.55,881.72,1094.89,810,970.55,738.18Z" transform="translate(-648.27 -6.09)"/><path class="cls-1" d="M981.1,719.9l124.24,71.73V648.21Z" transform="translate(-648.27 -6.09)"/><path class="cls-3" d="M825.24,450l124.22,71.74V378.28Z" transform="translate(-648.27 -6.09)"/><path class="cls-1" d="M825.2,270l124.26,71.74V198.26Z" transform="translate(-648.27 -6.09)"/><path class="cls-2" d="M814.69,431.73,938.91,360,814.65,288.26Z" transform="translate(-648.27 -6.09)"/><path class="cls-1" d="M648.28,192.21V527.8L793.6,443.9l-.05-167.82Z" transform="translate(-648.27 -6.09)"/><path class="cls-3" d="M1261.31,906.05,1116,822.14,970.55,906.07v167.84Z" transform="translate(-648.27 -6.09)"/><path class="cls-2" d="M1271.74,552.18,1126.43,636V803.81l145.31,83.9Z" transform="translate(-648.27 -6.09)"/><path class="cls-1" d="M970.55,366.1V533.91l145.34,83.86,145.31-83.86Z" transform="translate(-648.27 -6.09)"/><path class="cls-3" d="M949.46,6.09,658.77,173.91,804.1,257.82l145.36-83.91Z" transform="translate(-648.27 -6.09)"/><path class="cls-2" d="M658.87,546,949.46,713.82V546.09L804.15,462.17Z" transform="translate(-648.27 -6.09)"/><path class="cls-3" d="M970.55,701.64l124.24-71.7L970.55,558.26Z" transform="translate(-648.27 -6.09)"/><path class="cls-4" d="M970.55,366.1V513.91l145.34,83.86,128-73.86Z" transform="translate(-648.27 -6.09)"/><path class="cls-5" d="M1221.48,190.55,970.55,337.91V190.55Z" transform="translate(-648.27 -6.09)"/><path class="cls-6" d="M970.55,153.45V6.09l255.21,147.36Z" transform="translate(-648.27 -6.09)"/><path class="cls-5" d="M949.46,6.09,672.63,165.91,804.1,241.82l145.36-83.91Z" transform="translate(-648.27 -6.09)"/><path class="cls-4" d="M839.05,262l110.41,63.74V198.26Z" transform="translate(-648.27 -6.09)"/><path class="cls-6" d="M814.69,415.74,925.06,352,814.65,288.27Z" transform="translate(-648.27 -6.09)"/><path class="cls-5" d="M839.1,442l110.36,63.74V378.28Z" transform="translate(-648.27 -6.09)"/><path class="cls-4" d="M648.28,192.21V511.8L793.6,427.9l-.05-151.82Z" transform="translate(-648.27 -6.09)"/><path class="cls-6" d="M672.73,538,949.46,697.82V546.09L804.15,462.17Z" transform="translate(-648.27 -6.09)"/><path class="cls-5" d="M970.6,685.64,1081,621.94,970.6,558.26Z" transform="translate(-648.27 -6.09)"/><path class="cls-4" d="M995,711.93l110.38,63.73V648.24Z" transform="translate(-648.27 -6.09)"/><path class="cls-6" d="M1271.74,552.16,1126.43,636V787.79l145.31,83.9Z" transform="translate(-648.27 -6.09)"/><path class="cls-6" d="M970.55,865.72,1081,802,970.55,738.18Z" transform="translate(-648.27 -6.09)"/><path class="cls-5" d="M1247.45,898.05,1116,822.14,970.55,906.07v151.84Z" transform="translate(-648.27 -6.09)"/><path class="cls-4" d="M949.46,873.45H694.21L804.12,810l145.34-83.92Z" transform="translate(-648.27 -6.09)"/><path class="cls-6" d="M949.45,910.55v147.37L694.21,910.55Z" transform="translate(-648.27 -6.09)"/></svg>